{
  "accessors": [
    {
      "name": "propeller-Mesh_0_positions",
      "componentType": 5126,
      "count": 205,
      "min": [
        -22.203393936157227,
        54.358882904052734,
        -43.357364654541016
      ],
      "max": [
        8.662942886352539,
        112.70232391357422,
        11.933849334716797
      ],
      "type": "VEC3",
      "bufferView": 0,
      "byteOffset": 0
    },
    {
      "name": "propeller-Mesh_0_normals",
      "componentType": 5126,
      "count": 205,
      "min": [
        -0.9847230911254883,
        -1,
        -1
      ],
      "max": [
        0.9847230911254883,
        1,
        1
      ],
      "type": "VEC3",
      "bufferView": 1,
      "byteOffset": 0
    },
    {
      "name": "propeller-Mesh_0_texcoords",
      "componentType": 5126,
      "count": 205,
      "min": [
        0,
        0
      ],
      "max": [
        1,
        1
      ],
      "type": "VEC2",
      "bufferView": 2,
      "byteOffset": 0
    },
    {
      "name": "propeller-Mesh_0_indices",
      "componentType": 5123,
      "count": 468,
      "min": [
        0
      ],
      "max": [
        204
      ],
      "type": "SCALAR",
      "bufferView": 3,
      "byteOffset": 0
    },
    {
      "name": "propeller-Mesh_1_positions",
      "componentType": 5126,
      "count": 40,
      "min": [
        -17.413352966308594,
        62.488182067871094,
        -33.02268981933594
      ],
      "max": [
        1.5660816431045532,
        101.38771057128906,
        2.9718282222747803
      ],
      "type": "VEC3",
      "bufferView": 0,
      "byteOffset": 2460
    },
    {
      "name": "propeller-Mesh_1_normals",
      "componentType": 5126,
      "count": 40,
      "min": [
        0,
        0,
        -1
      ],
      "max": [
        0,
        0,
        -1
      ],
      "type": "VEC3",
      "bufferView": 1,
      "byteOffset": 2460
    },
    {
      "name": "propeller-Mesh_1_texcoords",
      "componentType": 5126,
      "count": 40,
      "min": [
        0,
        0
      ],
      "max": [
        0,
        0
      ],
      "type": "VEC2",
      "bufferView": 2,
      "byteOffset": 1640
    },
    {
      "name": "propeller-Mesh_1_indices",
      "componentType": 5123,
      "count": 90,
      "min": [
        0
      ],
      "max": [
        39
      ],
      "type": "SCALAR",
      "bufferView": 3,
      "byteOffset": 936
    },
    {
      "name": "Mill-Mesh_0_positions",
      "componentType": 5126,
      "count": 176,
      "min": [
        -18.204763412475586,
        16.6968994140625,
        -49.113548278808594
      ],
      "max": [
        33.533287048339844,
        94.96240234375,
        2.6245007514953613
      ],
      "type": "VEC3",
      "bufferView": 0,
      "byteOffset": 2940
    },
    {
      "name": "Mill-Mesh_0_texcoords",
      "componentType": 5126,
      "count": 176,
      "min": [
        0,
        0
      ],
      "max": [
        1,
        1
      ],
      "type": "VEC2",
      "bufferView": 2,
      "byteOffset": 1960
    },
    {
      "name": "Mill-Mesh_0_indices",
      "componentType": 5123,
      "count": 324,
      "min": [
        0
      ],
      "max": [
        175
      ],
      "type": "SCALAR",
      "bufferView": 3,
      "byteOffset": 1116
    },
    {
      "name": "Mill-Mesh_1_positions",
      "componentType": 5126,
      "count": 41,
      "min": [
        -18.204763412475586,
        16.6968994140625,
        -49.113548278808594
      ],
      "max": [
        33.533287048339844,
        76.96440887451172,
        2.6245007514953613
      ],
      "type": "VEC3",
      "bufferView": 0,
      "byteOffset": 5052
    },
    {
      "name": "Mill-Mesh_1_texcoords",
      "componentType": 5126,
      "count": 41,
      "min": [
        0,
        0
      ],
      "max": [
        1,
        1
      ],
      "type": "VEC2",
      "bufferView": 2,
      "byteOffset": 3368
    },
    {
      "name": "Mill-Mesh_1_indices",
      "componentType": 5123,
      "count": 72,
      "min": [
        0
      ],
      "max": [
        40
      ],
      "type": "SCALAR",
      "bufferView": 3,
      "byteOffset": 1764
    },
    {
      "name": "Island-Mesh_0_positions",
      "componentType": 5126,
      "count": 164,
      "min": [
        -54.55467987060547,
        -81.94572448730469,
        -57.53966522216797
      ],
      "max": [
        50.570316314697266,
        24.752439498901367,
        46.542510986328125
      ],
      "type": "VEC3",
      "bufferView": 0,
      "byteOffset": 5544
    },
    {
      "name": "Island-Mesh_0_texcoords",
      "componentType": 5126,
      "count": 164,
      "min": [
        0,
        0
      ],
      "max": [
        1,
        1
      ],
      "type": "VEC2",
      "bufferView": 2,
      "byteOffset": 3696
    },
    {
      "name": "Island-Mesh_0_indices",
      "componentType": 5123,
      "count": 645,
      "min": [
        0
      ],
      "max": [
        163
      ],
      "type": "SCALAR",
      "bufferView": 3,
      "byteOffset": 1908
    },
    {
      "name": "Green_platform-Mesh_0_positions",
      "componentType": 5126,
      "count": 84,
      "min": [
        -54.85883331298828,
        12.485543251037598,
        -57.45575714111328
      ],
      "max": [
        48.747676849365234,
        20.436330795288086,
        45.92522430419922
      ],
      "type": "VEC3",
      "bufferView": 0,
      "byteOffset": 7512
    },
    {
      "name": "Green_platform-Mesh_0_normals",
      "componentType": 5126,
      "count": 84,
      "min": [
        -0.998956024646759,
        -0.9996204972267151,
        -1
      ],
      "max": [
        0.9850914478302002,
        0.9956856369972229,
        1
      ],
      "type": "VEC3",
      "bufferView": 1,
      "byteOffset": 2940
    },
    {
      "name": "Green_platform-Mesh_0_texcoords",
      "componentType": 5126,
      "count": 84,
      "min": [
        0,
        0
      ],
      "max": [
        1,
        1
      ],
      "type": "VEC2",
      "bufferView": 2,
      "byteOffset": 5008
    },
    {
      "name": "Green_platform-Mesh_0_indices",
      "componentType": 5123,
      "count": 180,
      "min": [
        0
      ],
      "max": [
        83
      ],
      "type": "SCALAR",
      "bufferView": 3,
      "byteOffset": 3200
    },
    {
      "name": "Tree-Mesh_0_positions",
      "componentType": 5126,
      "count": 32,
      "min": [
        -18.582849502563477,
        19.542850494384766,
        22.924556732177734
      ],
      "max": [
        -3.234088659286499,
        43.04752731323242,
        41.34227752685547
      ],
      "type": "VEC3",
      "bufferView": 0,
      "byteOffset": 8520
    },
    {
      "name": "Tree-Mesh_0_texcoords",
      "componentType": 5126,
      "count": 32,
      "min": [
        0,
        0
      ],
      "max": [
        1,
        1
      ],
      "type": "VEC2",
      "bufferView": 2,
      "byteOffset": 5680
    },
    {
      "name": "Tree-Mesh_0_indices",
      "componentType": 5123,
      "count": 108,
      "min": [
        0
      ],
      "max": [
        31
      ],
      "type": "SCALAR",
      "bufferView": 3,
      "byteOffset": 3560
    },
    {
      "name": "Tree-Mesh_1_positions",
      "componentType": 5126,
      "count": 760,
      "min": [
        -31.662105560302734,
        28.94359016418457,
        8.97008991241455
      ],
      "max": [
        13.890148162841797,
        61.81446838378906,
        55.16305923461914
      ],
      "type": "VEC3",
      "bufferView": 0,
      "byteOffset": 8904
    },
    {
      "name": "Tree-Mesh_1_texcoords",
      "componentType": 5126,
      "count": 760,
      "min": [
        0,
        0
      ],
      "max": [
        1,
        1
      ],
      "type": "VEC2",
      "bufferView": 2,
      "byteOffset": 5936
    },
    {
      "name": "Tree-Mesh_1_indices",
      "componentType": 5123,
      "count": 3516,
      "min": [
        0
      ],
      "max": [
        759
      ],
      "type": "SCALAR",
      "bufferView": 3,
      "byteOffset": 3776
    }
  ],
  "asset": {
    "generator": "obj2gltf",
    "version": "2.0"
  },
  "buffers": [
    {
      "name": "low-poly-mill",
      "byteLength": 44796,
      "uri": "data:application/octet-stream;base64,"
    }
  ],
  "bufferViews": [
    {
      "name": "bufferView_0",
      "buffer": 0,
      "byteLength": 18024,
      "byteOffset": 0,
      "byteStride": 12,
      "target": 34962
    },
    {
      "name": "bufferView_1",
      "buffer": 0,
      "byteLength": 3948,
      "byteOffset": 18024,
      "byteStride": 12,
      "target": 34962
    },
    {
      "name": "bufferView_2",
      "buffer": 0,
      "byteLength": 12016,
      "byteOffset": 21972,
      "byteStride": 8,
      "target": 34962
    },
    {
      "name": "bufferView_3",
      "buffer": 0,
      "byteLength": 10808,
      "byteOffset": 33988,
      "target": 34963
    }
  ],
  "materials": [
    {
      "name": "facade1",
      "pbrMetallicRoughness": {
        "baseColorFactor": [
          0.81033653020859,
          0.75712728500366,
          0.8265306353569,
          1
        ],
        "metallicFactor": 0,
        "roughnessFactor": 0.95
      },
      "emissiveFactor": [
        0,
        0,
        0
      ],
      "alphaMode": "OPAQUE",
      "doubleSided": false
    },
    {
      "name": "ground",
      "pbrMetallicRoughness": {
        "baseColorFactor": [
          0.64285713434219,
          0.43904036283493,
          0.2061068713665,
          1
        ],
        "metallicFactor": 0,
        "roughnessFactor": 0.94
      },
      "emissiveFactor": [
        0,
        0,
        0
      ],
      "alphaMode": "OPAQUE",
      "doubleSided": false
    },
    {
      "name": "facade",
      "pbrMetallicRoughness": {
        "baseColorFactor": [
          0.57142859697342,
          0.35390767455101,
          0.1875681579113,
          1
        ],
        "metallicFactor": 0,
        "roughnessFactor": 0.9299999999999999
      },
      "emissiveFactor": [
        0,
        0,
        0
      ],
      "alphaMode": "OPAQUE",
      "doubleSided": false
    },
    {
      "name": "facade1-2",
      "pbrMetallicRoughness": {
        "baseColorFactor": [
          0.81033653020859,
          0.75712728500366,
          0.8265306353569,
          1
        ],
        "metallicFactor": 0,
        "roughnessFactor": 0.95
      },
      "emissiveFactor": [
        0,
        0,
        0
      ],
      "alphaMode": "OPAQUE",
      "doubleSided": false
    },
    {
      "name": "ground-2",
      "pbrMetallicRoughness": {
        "baseColorFactor": [
          0.64285713434219,
          0.43904036283493,
          0.2061068713665,
          1
        ],
        "metallicFactor": 0,
        "roughnessFactor": 0.94
      },
      "emissiveFactor": [
        0,
        0,
        0
      ],
      "alphaMode": "OPAQUE",
      "doubleSided": false
    },
    {
      "name": "platform",
      "pbrMetallicRoughness": {
        "baseColorFactor": [
          0.00599781889468,
          0.78571426868439,
          0.00599781889468,
          1
        ],
        "metallicFactor": 0,
        "roughnessFactor": 0.9410000000000001
      },
      "emissiveFactor": [
        0,
        0,
        0
      ],
      "alphaMode": "OPAQUE",
      "doubleSided": false
    },
    {
      "name": "wood",
      "pbrMetallicRoughness": {
        "baseColorFactor": [
          0.32653060555458,
          0.16949680447578,
          0.01246300060302,
          1
        ],
        "metallicFactor": 0,
        "roughnessFactor": 0.923
      },
      "emissiveFactor": [
        0,
        0,
        0
      ],
      "alphaMode": "OPAQUE",
      "doubleSided": false
    },
    {
      "name": "foliage",
      "pbrMetallicRoughness": {
        "baseColorFactor": [
          0,
          0.70408165454864,
          0.2581632733345,
          1
        ],
        "metallicFactor": 0,
        "roughnessFactor": 0.937
      },
      "emissiveFactor": [
        0,
        0,
        0
      ],
      "alphaMode": "OPAQUE",
      "doubleSided": false
    }
  ],
  "meshes": [
    {
      "name": "propeller-Mesh",
      "primitives": [
        {
          "attributes": {
            "POSITION": 0,
            "NORMAL": 1,
            "TEXCOORD_0": 2
          },
          "indices": 3,
          "material": 0,
          "mode": 4
        },
        {
          "attributes": {
            "POSITION": 4,
            "NORMAL": 5,
            "TEXCOORD_0": 6
          },
          "indices": 7,
          "material": 1,
          "mode": 4
        }
      ]
    },
    {
      "name": "Mill-Mesh",
      "primitives": [
        {
          "attributes": {
            "POSITION": 8,
            "TEXCOORD_0": 9
          },
          "indices": 10,
          "material": 2,
          "mode": 4
        },
        {
          "attributes": {
            "POSITION": 11,
            "TEXCOORD_0": 12
          },
          "indices": 13,
          "material": 3,
          "mode": 4
        }
      ]
    },
    {
      "name": "Island-Mesh",
      "primitives": [
        {
          "attributes": {
            "POSITION": 14,
            "TEXCOORD_0": 15
          },
          "indices": 16,
          "material": 4,
          "mode": 4
        }
      ]
    },
    {
      "name": "Green_platform-Mesh",
      "primitives": [
        {
          "attributes": {
            "POSITION": 17,
            "NORMAL": 18,
            "TEXCOORD_0": 19
          },
          "indices": 20,
          "material": 5,
          "mode": 4
        }
      ]
    },
    {
      "name": "Tree-Mesh",
      "primitives": [
        {
          "attributes": {
            "POSITION": 21,
            "TEXCOORD_0": 22
          },
          "indices": 23,
          "material": 6,
          "mode": 4
        },
        {
          "attributes": {
            "POSITION": 24,
            "TEXCOORD_0": 25
          },
          "indices": 26,
          "material": 7,
          "mode": 4
        }
      ]
    }
  ],
  "nodes": [
    {
      "name": "propeller",
      "mesh": 0
    },
    {
      "name": "Mill",
      "mesh": 1
    },
    {
      "name": "Island",
      "mesh": 2
    },
    {
      "name": "Green_platform",
      "mesh": 3
    },
    {
      "name": "Tree",
      "mesh": 4
    }
  ],
  "scene": 0,
  "scenes": [
    {
      "nodes": [
        0,
        1,
        2,
        3,
        4
      ]
    }
  ]
}
