{
  "accessors": [
    {
      "name": "Box002_1_0_positions",
      "componentType": 5126,
      "count": 510,
      "min": [
        -32.75450134277344,
        0,
        -15.406399726867676
      ],
      "max": [
        32.754600524902344,
        38.13090133666992,
        15.406399726867676
      ],
      "type": "VEC3",
      "bufferView": 0,
      "byteOffset": 0
    },
    {
      "name": "Box002_1_0_normals",
      "componentType": 5126,
      "count": 510,
      "min": [
        -0.8755752444267273,
        -0.8756051659584045,
        -0.8756051659584045
      ],
      "max": [
        0.8756051659584045,
        0.9238766431808472,
        0.9054048657417297
      ],
      "type": "VEC3",
      "bufferView": 1,
      "byteOffset": 0
    },
    {
      "name": "Box002_1_0_texcoords",
      "componentType": 5126,
      "count": 510,
      "min": [
        -0.5618000030517578,
        -0.002400000113993883
      ],
      "max": [
        1.0016000270843506,
        1.0013999938964844
      ],
      "type": "VEC2",
      "bufferView": 2,
      "byteOffset": 0
    },
    {
      "name": "Box002_1_0_indices",
      "componentType": 5123,
      "count": 1032,
      "min": [
        0
      ],
      "max": [
        509
      ],
      "type": "SCALAR",
      "bufferView": 3,
      "byteOffset": 0
    },
    {
      "name": "Line002_1_0_positions",
      "componentType": 5126,
      "count": 128,
      "min": [
        7.945400238037109,
        30.436199188232422,
        -16.699399948120117
      ],
      "max": [
        17.290300369262695,
        31.122699737548828,
        -15.3774995803833
      ],
      "type": "VEC3",
      "bufferView": 0,
      "byteOffset": 6120
    },
    {
      "name": "Line002_1_0_normals",
      "componentType": 5126,
      "count": 128,
      "min": [
        -0.9692856073379517,
        -0.9997411966323853,
        -0.8539282083511353
      ],
      "max": [
        0.9693759083747864,
        0.9994558095932007,
        0.9999999403953552
      ],
      "type": "VEC3",
      "bufferView": 1,
      "byteOffset": 6120
    },
    {
      "name": "Line002_1_0_indices",
      "componentType": 5123,
      "count": 756,
      "min": [
        0
      ],
      "max": [
        127
      ],
      "type": "SCALAR",
      "bufferView": 3,
      "byteOffset": 2064
    },
    {
      "name": "Line003_1_0_positions",
      "componentType": 5126,
      "count": 128,
      "min": [
        7.945400238037109,
        19.403200149536133,
        -16.699399948120117
      ],
      "max": [
        17.290300369262695,
        20.089799880981445,
        -15.3774995803833
      ],
      "type": "VEC3",
      "bufferView": 0,
      "byteOffset": 7656
    },
    {
      "name": "Line003_1_0_normals",
      "componentType": 5126,
      "count": 128,
      "min": [
        -0.9692856073379517,
        -0.9997411966323853,
        -0.8539282083511353
      ],
      "max": [
        0.9693759083747864,
        0.9994558095932007,
        0.9999999403953552
      ],
      "type": "VEC3",
      "bufferView": 1,
      "byteOffset": 7656
    },
    {
      "name": "Line003_1_0_indices",
      "componentType": 5123,
      "count": 756,
      "min": [
        0
      ],
      "max": [
        127
      ],
      "type": "SCALAR",
      "bufferView": 3,
      "byteOffset": 3576
    },
    {
      "name": "Line004_1_0_positions",
      "componentType": 5126,
      "count": 128,
      "min": [
        7.945400238037109,
        7.776700019836426,
        -16.699399948120117
      ],
      "max": [
        17.290300369262695,
        8.463199615478516,
        -15.3774995803833
      ],
      "type": "VEC3",
      "bufferView": 0,
      "byteOffset": 9192
    },
    {
      "name": "Line004_1_0_normals",
      "componentType": 5126,
      "count": 128,
      "min": [
        -0.9692856073379517,
        -0.9997411966323853,
        -0.8539282083511353
      ],
      "max": [
        0.9693759083747864,
        0.9994558095932007,
        0.9999999403953552
      ],
      "type": "VEC3",
      "bufferView": 1,
      "byteOffset": 9192
    },
    {
      "name": "Line004_1_0_indices",
      "componentType": 5123,
      "count": 756,
      "min": [
        0
      ],
      "max": [
        127
      ],
      "type": "SCALAR",
      "bufferView": 3,
      "byteOffset": 5088
    },
    {
      "name": "Line005_1_0_positions",
      "componentType": 5126,
      "count": 128,
      "min": [
        -11.84060001373291,
        22.643800735473633,
        -16.699399948120117
      ],
      "max": [
        -11.154000282287598,
        31.98870086669922,
        -15.3774995803833
      ],
      "type": "VEC3",
      "bufferView": 0,
      "byteOffset": 10728
    },
    {
      "name": "Line005_1_0_normals",
      "componentType": 5126,
      "count": 128,
      "min": [
        -0.9997411966323853,
        -0.9693759083747864,
        -0.8539282083511353
      ],
      "max": [
        0.9994558095932007,
        0.9692856073379517,
        0.9999999403953552
      ],
      "type": "VEC3",
      "bufferView": 1,
      "byteOffset": 10728
    },
    {
      "name": "Line005_1_0_indices",
      "componentType": 5123,
      "count": 756,
      "min": [
        0
      ],
      "max": [
        127
      ],
      "type": "SCALAR",
      "bufferView": 3,
      "byteOffset": 6600
    },
    {
      "name": "Plane001_1_0_positions",
      "componentType": 5126,
      "count": 6,
      "min": [
        -403.1075134277344,
        0,
        -114.75
      ],
      "max": [
        325.9729919433594,
        161.1842041015625,
        114.75
      ],
      "type": "VEC3",
      "bufferView": 0,
      "byteOffset": 12264
    },
    {
      "name": "Plane001_1_0_normals",
      "componentType": 5126,
      "count": 6,
      "min": [
        0,
        0,
        -1
      ],
      "max": [
        0,
        1,
        0
      ],
      "type": "VEC3",
      "bufferView": 1,
      "byteOffset": 12264
    },
    {
      "name": "Plane001_1_0_texcoords",
      "componentType": 5126,
      "count": 6,
      "min": [
        0,
        -228.5
      ],
      "max": [
        546.47998046875,
        1
      ],
      "type": "VEC2",
      "bufferView": 2,
      "byteOffset": 4080
    },
    {
      "name": "Plane001_1_0_indices",
      "componentType": 5123,
      "count": 12,
      "min": [
        0
      ],
      "max": [
        5
      ],
      "type": "SCALAR",
      "bufferView": 3,
      "byteOffset": 8112
    }
  ],
  "asset": {
    "generator": "obj2gltf",
    "version": "2.0"
  },
  "buffers": [
    {
      "name": "СhestOfDrawers",
      "byteLength": 36936,
      "uri": "data:application/octet-stream;base64,"
    }
  ],
  "bufferViews": [
    {
      "name": "bufferView_0",
      "buffer": 0,
      "byteLength": 12336,
      "byteOffset": 0,
      "byteStride": 12,
      "target": 34962
    },
    {
      "name": "bufferView_1",
      "buffer": 0,
      "byteLength": 12336,
      "byteOffset": 12336,
      "byteStride": 12,
      "target": 34962
    },
    {
      "name": "bufferView_2",
      "buffer": 0,
      "byteLength": 4128,
      "byteOffset": 24672,
      "byteStride": 8,
      "target": 34962
    },
    {
      "name": "bufferView_3",
      "buffer": 0,
      "byteLength": 8136,
      "byteOffset": 28800,
      "target": 34963
    }
  ],
  "materials": [
    {
      "name": "wire_135059008",
      "pbrMetallicRoughness": {
        "baseColorFactor": [
          0.5294,
          0.2314,
          0.0314,
          1
        ],
        "metallicFactor": 0,
        "roughnessFactor": 0.968
      },
      "emissiveFactor": [
        0,
        0,
        0
      ],
      "alphaMode": "OPAQUE",
      "doubleSided": false
    },
    {
      "name": "wire_213154229",
      "pbrMetallicRoughness": {
        "baseColorFactor": [
          0.8353,
          0.6039,
          0.898,
          1
        ],
        "metallicFactor": 0,
        "roughnessFactor": 0.968
      },
      "emissiveFactor": [
        0,
        0,
        0
      ],
      "alphaMode": "OPAQUE",
      "doubleSided": false
    },
    {
      "name": "03___Default",
      "pbrMetallicRoughness": {
        "baseColorFactor": [
          0.5882,
          0.5882,
          0.5882,
          1
        ],
        "metallicFactor": 0,
        "roughnessFactor": 0.99
      },
      "emissiveFactor": [
        0,
        0,
        0
      ],
      "alphaMode": "OPAQUE",
      "doubleSided": false
    }
  ],
  "meshes": [
    {
      "name": "Box002_1",
      "primitives": [
        {
          "attributes": {
            "POSITION": 0,
            "NORMAL": 1,
            "TEXCOORD_0": 2
          },
          "indices": 3,
          "material": 0,
          "mode": 4
        }
      ]
    },
    {
      "name": "Line002_1",
      "primitives": [
        {
          "attributes": {
            "POSITION": 4,
            "NORMAL": 5
          },
          "indices": 6,
          "material": 1,
          "mode": 4
        }
      ]
    },
    {
      "name": "Line003_1",
      "primitives": [
        {
          "attributes": {
            "POSITION": 7,
            "NORMAL": 8
          },
          "indices": 9,
          "material": 1,
          "mode": 4
        }
      ]
    },
    {
      "name": "Line004_1",
      "primitives": [
        {
          "attributes": {
            "POSITION": 10,
            "NORMAL": 11
          },
          "indices": 12,
          "material": 1,
          "mode": 4
        }
      ]
    },
    {
      "name": "Line005_1",
      "primitives": [
        {
          "attributes": {
            "POSITION": 13,
            "NORMAL": 14
          },
          "indices": 15,
          "material": 1,
          "mode": 4
        }
      ]
    },
    {
      "name": "Plane001_1",
      "primitives": [
        {
          "attributes": {
            "POSITION": 16,
            "NORMAL": 17,
            "TEXCOORD_0": 18
          },
          "indices": 19,
          "material": 2,
          "mode": 4
        }
      ]
    }
  ],
  "nodes": [
    {
      "name": "Box002",
      "mesh": 0
    },
    {
      "name": "Line002",
      "mesh": 1
    },
    {
      "name": "Line003",
      "mesh": 2
    },
    {
      "name": "Line004",
      "mesh": 3
    },
    {
      "name": "Line005",
      "mesh": 4
    },
    {
      "name": "Plane001",
      "mesh": 5
    }
  ],
  "scene": 0,
  "scenes": [
    {
      "nodes": [
        0,
        1,
        2,
        3,
        4,
        5
      ]
    }
  ]
}
