{
  "accessors": [
    {
      "name": "10057_wooden_door_v1_1_0_positions",
      "componentType": 5126,
      "count": 3686,
      "min": [
        -40.739601135253906,
        -2.296299934387207,
        0.5997999906539917
      ],
      "max": [
        40.25270080566406,
        0.8942999839782715,
        201.74929809570312
      ],
      "type": "VEC3",
      "bufferView": 0,
      "byteOffset": 0
    },
    {
      "name": "10057_wooden_door_v1_1_0_normals",
      "componentType": 5126,
      "count": 3686,
      "min": [
        -1,
        -1,
        -1
      ],
      "max": [
        1,
        1,
        1
      ],
      "type": "VEC3",
      "bufferView": 1,
      "byteOffset": 0
    },
    {
      "name": "10057_wooden_door_v1_1_0_texcoords",
      "componentType": 5126,
      "count": 3686,
      "min": [
        0.03590000048279762,
        0.03620000183582306
      ],
      "max": [
        0.955299973487854,
        0.9577000141143799
      ],
      "type": "VEC2",
      "bufferView": 2,
      "byteOffset": 0
    },
    {
      "name": "10057_wooden_door_v1_1_0_indices",
      "componentType": 5123,
      "count": 9288,
      "min": [
        0
      ],
      "max": [
        3685
      ],
      "type": "SCALAR",
      "bufferView": 3,
      "byteOffset": 0
    },
    {
      "name": "10057_wooden_door_frame_v1_1_0_positions",
      "componentType": 5126,
      "count": 806,
      "min": [
        -45.47060012817383,
        -2.746299982070923,
        -0.0027000000700354576
      ],
      "max": [
        45.48350143432617,
        2.7662999629974365,
        206.9449005126953
      ],
      "type": "VEC3",
      "bufferView": 0,
      "byteOffset": 44232
    },
    {
      "name": "10057_wooden_door_frame_v1_1_0_normals",
      "componentType": 5126,
      "count": 806,
      "min": [
        -1,
        -0.9998568296432495,
        -1
      ],
      "max": [
        1,
        0.9998568296432495,
        1
      ],
      "type": "VEC3",
      "bufferView": 1,
      "byteOffset": 44232
    },
    {
      "name": "10057_wooden_door_frame_v1_1_0_texcoords",
      "componentType": 5126,
      "count": 806,
      "min": [
        0.13670000433921814,
        0.013299999758601189
      ],
      "max": [
        0.988099992275238,
        0.9933000206947327
      ],
      "type": "VEC2",
      "bufferView": 2,
      "byteOffset": 29488
    },
    {
      "name": "10057_wooden_door_frame_v1_1_0_indices",
      "componentType": 5123,
      "count": 2964,
      "min": [
        0
      ],
      "max": [
        805
      ],
      "type": "SCALAR",
      "bufferView": 3,
      "byteOffset": 18576
    }
  ],
  "asset": {
    "generator": "obj2gltf",
    "version": "2.0"
  },
  "buffers": [
    {
      "name": "10057_wooden_door_v3_iterations-2",
      "byteLength": 168248,
      "uri": "data:application/octet-stream;base64,"
    }
  ],
  "bufferViews": [
    {
      "name": "bufferView_0",
      "buffer": 0,
      "byteLength": 53904,
      "byteOffset": 0,
      "byteStride": 12,
      "target": 34962
    },
    {
      "name": "bufferView_1",
      "buffer": 0,
      "byteLength": 53904,
      "byteOffset": 53904,
      "byteStride": 12,
      "target": 34962
    },
    {
      "name": "bufferView_2",
      "buffer": 0,
      "byteLength": 35936,
      "byteOffset": 107808,
      "byteStride": 8,
      "target": 34962
    },
    {
      "name": "bufferView_3",
      "buffer": 0,
      "byteLength": 24504,
      "byteOffset": 143744,
      "target": 34963
    }
  ],
  "materials": [
    {
      "name": "orig_orig_orig_orig_orig_orig_orig_10057_wooden_door_v1",
      "pbrMetallicRoughness": {
        "baseColorFactor": [
          0.588,
          0.588,
          0.588,
          1
        ],
        "metallicFactor": 0,
        "roughnessFactor": 0.99
      },
      "emissiveFactor": [
        0,
        0,
        0
      ],
      "alphaMode": "OPAQUE",
      "doubleSided": false
    }
  ],
  "meshes": [
    {
      "name": "10057_wooden_door_v1_1",
      "primitives": [
        {
          "attributes": {
            "POSITION": 0,
            "NORMAL": 1,
            "TEXCOORD_0": 2
          },
          "indices": 3,
          "material": 0,
          "mode": 4
        }
      ]
    },
    {
      "name": "10057_wooden_door_frame_v1_1",
      "primitives": [
        {
          "attributes": {
            "POSITION": 4,
            "NORMAL": 5,
            "TEXCOORD_0": 6
          },
          "indices": 7,
          "material": 0,
          "mode": 4
        }
      ]
    }
  ],
  "nodes": [
    {
      "name": "10057_wooden_door_v1",
      "mesh": 0
    },
    {
      "name": "10057_wooden_door_frame_v1",
      "mesh": 1
    }
  ],
  "scene": 0,
  "scenes": [
    {
      "nodes": [
        0,
        1
      ]
    }
  ]
}
