{
  "accessors": [
    {
      "name": "Knob_Cylinder-Mesh_0_positions",
      "componentType": 5126,
      "count": 230,
      "min": [
        -0.09946700185537338,
        2.531799077987671,
        0.1491439938545227
      ],
      "max": [
        0.10053300112485886,
        2.7317988872528076,
        0.26309099793434143
      ],
      "type": "VEC3",
      "bufferView": 0,
      "byteOffset": 0
    },
    {
      "name": "Knob_Cylinder-Mesh_0_normals",
      "componentType": 5126,
      "count": 230,
      "min": [
        -1,
        -1,
        0
      ],
      "max": [
        1,
        1,
        0.9489272236824036
      ],
      "type": "VEC3",
      "bufferView": 1,
      "byteOffset": 0
    },
    {
      "name": "Knob_Cylinder-Mesh_0_texcoords",
      "componentType": 5126,
      "count": 230,
      "min": [
        0.7715950012207031,
        0.40324100852012634
      ],
      "max": [
        0.823140025138855,
        0.5534970164299011
      ],
      "type": "VEC2",
      "bufferView": 2,
      "byteOffset": 0
    },
    {
      "name": "Knob_Cylinder-Mesh_0_indices",
      "componentType": 5123,
      "count": 1050,
      "min": [
        0
      ],
      "max": [
        229
      ],
      "type": "SCALAR",
      "bufferView": 3,
      "byteOffset": 0
    },
    {
      "name": "Door_Cube.013-Mesh_0_positions",
      "componentType": 5126,
      "count": 88,
      "min": [
        -0.6808369755744934,
        2.2286829948425293,
        0.06205800175666809
      ],
      "max": [
        0.7415400147438049,
        3.0206820964813232,
        0.16192099452018738
      ],
      "type": "VEC3",
      "bufferView": 0,
      "byteOffset": 2760
    },
    {
      "name": "Door_Cube.013-Mesh_0_normals",
      "componentType": 5126,
      "count": 88,
      "min": [
        -1,
        -1,
        -1
      ],
      "max": [
        1,
        1,
        1
      ],
      "type": "VEC3",
      "bufferView": 1,
      "byteOffset": 2760
    },
    {
      "name": "Door_Cube.013-Mesh_0_texcoords",
      "componentType": 5126,
      "count": 88,
      "min": [
        0.3106450140476227,
        0.1273529976606369
      ],
      "max": [
        0.9859799742698669,
        0.9872040152549744
      ],
      "type": "VEC2",
      "bufferView": 2,
      "byteOffset": 1840
    },
    {
      "name": "Door_Cube.013-Mesh_0_indices",
      "componentType": 5123,
      "count": 132,
      "min": [
        0
      ],
      "max": [
        87
      ],
      "type": "SCALAR",
      "bufferView": 3,
      "byteOffset": 2100
    },
    {
      "name": "Drawer_parts_Cube.014-Mesh_0_positions",
      "componentType": 5126,
      "count": 76,
      "min": [
        -0.6219890117645264,
        2.2345430850982666,
        -1.934620976448059
      ],
      "max": [
        0.6750280261039734,
        3.012561082839966,
        0.08221500366926193
      ],
      "type": "VEC3",
      "bufferView": 0,
      "byteOffset": 3816
    },
    {
      "name": "Drawer_parts_Cube.014-Mesh_0_normals",
      "componentType": 5126,
      "count": 76,
      "min": [
        -1,
        -1,
        -1
      ],
      "max": [
        1,
        1,
        1
      ],
      "type": "VEC3",
      "bufferView": 1,
      "byteOffset": 3816
    },
    {
      "name": "Drawer_parts_Cube.014-Mesh_0_texcoords",
      "componentType": 5126,
      "count": 76,
      "min": [
        0.012795999646186829,
        0.026384999975562096
      ],
      "max": [
        0.9737449884414673,
        0.9872040152549744
      ],
      "type": "VEC2",
      "bufferView": 2,
      "byteOffset": 2544
    },
    {
      "name": "Drawer_parts_Cube.014-Mesh_0_indices",
      "componentType": 5123,
      "count": 114,
      "min": [
        0
      ],
      "max": [
        75
      ],
      "type": "SCALAR",
      "bufferView": 3,
      "byteOffset": 2364
    },
    {
      "name": "Nut_Sphere-Mesh_0_positions",
      "componentType": 5126,
      "count": 5400,
      "min": [
        -1.111238956451416,
        0.630607008934021,
        -2.1375200748443604
      ],
      "max": [
        1.16395902633667,
        3.036823034286499,
        0.13767500221729279
      ],
      "type": "VEC3",
      "bufferView": 0,
      "byteOffset": 4728
    },
    {
      "name": "Nut_Sphere-Mesh_0_normals",
      "componentType": 5126,
      "count": 5400,
      "min": [
        -1,
        -0.932328999042511,
        -1
      ],
      "max": [
        1,
        0.932328999042511,
        1
      ],
      "type": "VEC3",
      "bufferView": 1,
      "byteOffset": 4728
    },
    {
      "name": "Nut_Sphere-Mesh_0_texcoords",
      "componentType": 5126,
      "count": 5400,
      "min": [
        0.07293900102376938,
        0.015393000096082687
      ],
      "max": [
        0.9872040152549744,
        0.9280589818954468
      ],
      "type": "VEC2",
      "bufferView": 2,
      "byteOffset": 3152
    },
    {
      "name": "Nut_Sphere-Mesh_0_indices",
      "componentType": 5123,
      "count": 29952,
      "min": [
        0
      ],
      "max": [
        5399
      ],
      "type": "SCALAR",
      "bufferView": 3,
      "byteOffset": 2592
    },
    {
      "name": "Truss__Cube.017-Mesh_0_positions",
      "componentType": 5126,
      "count": 128,
      "min": [
        -1.0735859870910645,
        0.6624289751052856,
        -2.10270094871521
      ],
      "max": [
        1.1264139413833618,
        2.056689977645874,
        0.10000000149011612
      ],
      "type": "VEC3",
      "bufferView": 0,
      "byteOffset": 69528
    },
    {
      "name": "Truss__Cube.017-Mesh_0_normals",
      "componentType": 5126,
      "count": 128,
      "min": [
        -1,
        -1,
        -1
      ],
      "max": [
        1,
        1,
        1
      ],
      "type": "VEC3",
      "bufferView": 1,
      "byteOffset": 69528
    },
    {
      "name": "Truss__Cube.017-Mesh_0_texcoords",
      "componentType": 5126,
      "count": 128,
      "min": [
        0.012795999646186829,
        0.08029399812221527
      ],
      "max": [
        0.9118319749832153,
        0.9872040152549744
      ],
      "type": "VEC2",
      "bufferView": 2,
      "byteOffset": 46352
    },
    {
      "name": "Truss__Cube.017-Mesh_0_indices",
      "componentType": 5123,
      "count": 192,
      "min": [
        0
      ],
      "max": [
        127
      ],
      "type": "SCALAR",
      "bufferView": 3,
      "byteOffset": 62496
    },
    {
      "name": "Base_2_Cube.016-Mesh_0_positions",
      "componentType": 5126,
      "count": 20,
      "min": [
        -0.8695269823074341,
        0.7127169966697693,
        -2.0376789569854736
      ],
      "max": [
        0.922353982925415,
        0.8127170205116272,
        -0.037679001688957214
      ],
      "type": "VEC3",
      "bufferView": 0,
      "byteOffset": 71064
    },
    {
      "name": "Base_2_Cube.016-Mesh_0_normals",
      "componentType": 5126,
      "count": 20,
      "min": [
        -1,
        -1,
        -1
      ],
      "max": [
        1,
        1,
        0
      ],
      "type": "VEC3",
      "bufferView": 1,
      "byteOffset": 71064
    },
    {
      "name": "Base_2_Cube.016-Mesh_0_texcoords",
      "componentType": 5126,
      "count": 20,
      "min": [
        0.49470099806785583,
        0.040550000965595245
      ],
      "max": [
        0.9237890243530273,
        0.9872040152549744
      ],
      "type": "VEC2",
      "bufferView": 2,
      "byteOffset": 47376
    },
    {
      "name": "Base_2_Cube.016-Mesh_0_indices",
      "componentType": 5123,
      "count": 30,
      "min": [
        0
      ],
      "max": [
        19
      ],
      "type": "SCALAR",
      "bufferView": 3,
      "byteOffset": 62880
    },
    {
      "name": "Base_Cube.015-Mesh_0_positions",
      "componentType": 5126,
      "count": 20,
      "min": [
        -0.8695269823074341,
        2.134516954421997,
        -2.0376789569854736
      ],
      "max": [
        0.922353982925415,
        2.2345170974731445,
        -0.037679001688957214
      ],
      "type": "VEC3",
      "bufferView": 0,
      "byteOffset": 71304
    },
    {
      "name": "Base_Cube.015-Mesh_0_normals",
      "componentType": 5126,
      "count": 20,
      "min": [
        -1,
        -1,
        -1
      ],
      "max": [
        1,
        1,
        0
      ],
      "type": "VEC3",
      "bufferView": 1,
      "byteOffset": 71304
    },
    {
      "name": "Base_Cube.015-Mesh_0_texcoords",
      "componentType": 5126,
      "count": 20,
      "min": [
        0.49470099806785583,
        0.040111999958753586
      ],
      "max": [
        0.9237890243530273,
        0.9079089760780334
      ],
      "type": "VEC2",
      "bufferView": 2,
      "byteOffset": 47536
    },
    {
      "name": "Base_Cube.015-Mesh_0_indices",
      "componentType": 5123,
      "count": 30,
      "min": [
        0
      ],
      "max": [
        19
      ],
      "type": "SCALAR",
      "bufferView": 3,
      "byteOffset": 62940
    },
    {
      "name": "truss_2_Cube.010-Mesh_0_positions",
      "componentType": 5126,
      "count": 32,
      "min": [
        -0.9655900001525879,
        2.05275297164917,
        -0.07409700006246567
      ],
      "max": [
        0.9544100165367126,
        3.212754011154175,
        0.05827200040221214
      ],
      "type": "VEC3",
      "bufferView": 0,
      "byteOffset": 71544
    },
    {
      "name": "truss_2_Cube.010-Mesh_0_normals",
      "componentType": 5126,
      "count": 32,
      "min": [
        0,
        -1,
        -1
      ],
      "max": [
        0,
        1,
        1
      ],
      "type": "VEC3",
      "bufferView": 1,
      "byteOffset": 71544
    },
    {
      "name": "truss_2_Cube.010-Mesh_0_texcoords",
      "componentType": 5126,
      "count": 32,
      "min": [
        0.1903589963912964,
        0.05928599834442139
      ],
      "max": [
        0.9445160031318665,
        0.5767539739608765
      ],
      "type": "VEC2",
      "bufferView": 2,
      "byteOffset": 47696
    },
    {
      "name": "truss_2_Cube.010-Mesh_0_indices",
      "componentType": 5123,
      "count": 48,
      "min": [
        0
      ],
      "max": [
        31
      ],
      "type": "SCALAR",
      "bufferView": 3,
      "byteOffset": 63000
    },
    {
      "name": "truss_3_Cube.007-Mesh_0_positions",
      "componentType": 5126,
      "count": 32,
      "min": [
        -0.8622769713401794,
        2.122227907180786,
        -0.06391199678182602
      ],
      "max": [
        0.9230009913444519,
        3.222852945327759,
        0.04808799922466278
      ],
      "type": "VEC3",
      "bufferView": 0,
      "byteOffset": 71928
    },
    {
      "name": "truss_3_Cube.007-Mesh_0_normals",
      "componentType": 5126,
      "count": 32,
      "min": [
        -1,
        0,
        -1
      ],
      "max": [
        1,
        0,
        1
      ],
      "type": "VEC3",
      "bufferView": 1,
      "byteOffset": 71928
    },
    {
      "name": "truss_3_Cube.007-Mesh_0_texcoords",
      "componentType": 5126,
      "count": 32,
      "min": [
        0.07293900102376938,
        0.03589100018143654
      ],
      "max": [
        0.9649519920349121,
        0.8102229833602905
      ],
      "type": "VEC2",
      "bufferView": 2,
      "byteOffset": 47952
    },
    {
      "name": "truss_3_Cube.007-Mesh_0_indices",
      "componentType": 5123,
      "count": 48,
      "min": [
        0
      ],
      "max": [
        31
      ],
      "type": "SCALAR",
      "bufferView": 3,
      "byteOffset": 63096
    },
    {
      "name": "Side_walls_Cube.005-Mesh_0_positions",
      "componentType": 5126,
      "count": 48,
      "min": [
        -1.043586015701294,
        0.7726420164108276,
        -2.0692670345306396
      ],
      "max": [
        1.092406988143921,
        3.2127881050109863,
        0
      ],
      "type": "VEC3",
      "bufferView": 0,
      "byteOffset": 72312
    },
    {
      "name": "Side_walls_Cube.005-Mesh_0_normals",
      "componentType": 5126,
      "count": 48,
      "min": [
        -1,
        -1,
        -1
      ],
      "max": [
        1,
        1,
        1
      ],
      "type": "VEC3",
      "bufferView": 1,
      "byteOffset": 72312
    },
    {
      "name": "Side_walls_Cube.005-Mesh_0_texcoords",
      "componentType": 5126,
      "count": 48,
      "min": [
        0.012795999646186829,
        0.21907800436019897
      ],
      "max": [
        0.8253610134124756,
        0.9872040152549744
      ],
      "type": "VEC2",
      "bufferView": 2,
      "byteOffset": 48208
    },
    {
      "name": "Side_walls_Cube.005-Mesh_0_indices",
      "componentType": 5123,
      "count": 72,
      "min": [
        0
      ],
      "max": [
        47
      ],
      "type": "SCALAR",
      "bufferView": 3,
      "byteOffset": 63192
    },
    {
      "name": "Drawer_top_Cube.004-Mesh_0_positions",
      "componentType": 5126,
      "count": 56,
      "min": [
        -1.169585943222046,
        3.1920080184936523,
        -2.196000099182129
      ],
      "max": [
        1.2224140167236328,
        3.3418190479278564,
        0.19599999487400055
      ],
      "type": "VEC3",
      "bufferView": 0,
      "byteOffset": 72888
    },
    {
      "name": "Drawer_top_Cube.004-Mesh_0_normals",
      "componentType": 5126,
      "count": 56,
      "min": [
        -1,
        -1,
        -1
      ],
      "max": [
        1,
        1,
        1
      ],
      "type": "VEC3",
      "bufferView": 1,
      "byteOffset": 72888
    },
    {
      "name": "Drawer_top_Cube.004-Mesh_0_texcoords",
      "componentType": 5126,
      "count": 56,
      "min": [
        0.012795999646186829,
        0.054482001811265945
      ],
      "max": [
        0.9695929884910583,
        0.9872040152549744
      ],
      "type": "VEC2",
      "bufferView": 2,
      "byteOffset": 48592
    },
    {
      "name": "Drawer_top_Cube.004-Mesh_0_indices",
      "componentType": 5123,
      "count": 84,
      "min": [
        0
      ],
      "max": [
        55
      ],
      "type": "SCALAR",
      "bufferView": 3,
      "byteOffset": 63336
    },
    {
      "name": "Leg_Cube.002-Mesh_0_positions",
      "componentType": 5126,
      "count": 96,
      "min": [
        -1.0935859680175781,
        0,
        -2.119999885559082
      ],
      "max": [
        1.146414041519165,
        3.200000047683716,
        0.11999999731779099
      ],
      "type": "VEC3",
      "bufferView": 0,
      "byteOffset": 73560
    },
    {
      "name": "Leg_Cube.002-Mesh_0_normals",
      "componentType": 5126,
      "count": 96,
      "min": [
        -1,
        -1,
        -1
      ],
      "max": [
        1,
        1,
        1
      ],
      "type": "VEC3",
      "bufferView": 1,
      "byteOffset": 73560
    },
    {
      "name": "Leg_Cube.002-Mesh_0_texcoords",
      "componentType": 5126,
      "count": 96,
      "min": [
        0.012795999646186829,
        0.018503999337553978
      ],
      "max": [
        0.948369026184082,
        0.9872040152549744
      ],
      "type": "VEC2",
      "bufferView": 2,
      "byteOffset": 49040
    },
    {
      "name": "Leg_Cube.002-Mesh_0_indices",
      "componentType": 5123,
      "count": 144,
      "min": [
        0
      ],
      "max": [
        95
      ],
      "type": "SCALAR",
      "bufferView": 3,
      "byteOffset": 63504
    }
  ],
  "asset": {
    "generator": "obj2gltf",
    "version": "2.0"
  },
  "buffers": [
    {
      "name": "Free model Drawer(Final) ",
      "byteLength": 263024,
      "uri": "data:application/octet-stream;base64,"
    }
  ],
  "bufferViews": [
    {
      "name": "bufferView_0",
      "buffer": 0,
      "byteLength": 74712,
      "byteOffset": 0,
      "byteStride": 12,
      "target": 34962
    },
    {
      "name": "bufferView_1",
      "buffer": 0,
      "byteLength": 74712,
      "byteOffset": 74712,
      "byteStride": 12,
      "target": 34962
    },
    {
      "name": "bufferView_2",
      "buffer": 0,
      "byteLength": 49808,
      "byteOffset": 149424,
      "byteStride": 8,
      "target": 34962
    },
    {
      "name": "bufferView_3",
      "buffer": 0,
      "byteLength": 63792,
      "byteOffset": 199232,
      "target": 34963
    }
  ],
  "materials": [
    {
      "name": "Free_Drawer__textures",
      "pbrMetallicRoughness": {
        "baseColorFactor": [
          0.5,
          0.5,
          0.5,
          1
        ],
        "metallicFactor": 0,
        "roughnessFactor": 1
      },
      "emissiveFactor": [
        0,
        0,
        0
      ],
      "alphaMode": "OPAQUE",
      "doubleSided": false
    }
  ],
  "meshes": [
    {
      "name": "Knob_Cylinder-Mesh",
      "primitives": [
        {
          "attributes": {
            "POSITION": 0,
            "NORMAL": 1,
            "TEXCOORD_0": 2
          },
          "indices": 3,
          "material": 0,
          "mode": 4
        }
      ]
    },
    {
      "name": "Door_Cube.013-Mesh",
      "primitives": [
        {
          "attributes": {
            "POSITION": 4,
            "NORMAL": 5,
            "TEXCOORD_0": 6
          },
          "indices": 7,
          "material": 0,
          "mode": 4
        }
      ]
    },
    {
      "name": "Drawer_parts_Cube.014-Mesh",
      "primitives": [
        {
          "attributes": {
            "POSITION": 8,
            "NORMAL": 9,
            "TEXCOORD_0": 10
          },
          "indices": 11,
          "material": 0,
          "mode": 4
        }
      ]
    },
    {
      "name": "Nut_Sphere-Mesh",
      "primitives": [
        {
          "attributes": {
            "POSITION": 12,
            "NORMAL": 13,
            "TEXCOORD_0": 14
          },
          "indices": 15,
          "material": 0,
          "mode": 4
        }
      ]
    },
    {
      "name": "Truss__Cube.017-Mesh",
      "primitives": [
        {
          "attributes": {
            "POSITION": 16,
            "NORMAL": 17,
            "TEXCOORD_0": 18
          },
          "indices": 19,
          "material": 0,
          "mode": 4
        }
      ]
    },
    {
      "name": "Base_2_Cube.016-Mesh",
      "primitives": [
        {
          "attributes": {
            "POSITION": 20,
            "NORMAL": 21,
            "TEXCOORD_0": 22
          },
          "indices": 23,
          "material": 0,
          "mode": 4
        }
      ]
    },
    {
      "name": "Base_Cube.015-Mesh",
      "primitives": [
        {
          "attributes": {
            "POSITION": 24,
            "NORMAL": 25,
            "TEXCOORD_0": 26
          },
          "indices": 27,
          "material": 0,
          "mode": 4
        }
      ]
    },
    {
      "name": "truss_2_Cube.010-Mesh",
      "primitives": [
        {
          "attributes": {
            "POSITION": 28,
            "NORMAL": 29,
            "TEXCOORD_0": 30
          },
          "indices": 31,
          "material": 0,
          "mode": 4
        }
      ]
    },
    {
      "name": "truss_3_Cube.007-Mesh",
      "primitives": [
        {
          "attributes": {
            "POSITION": 32,
            "NORMAL": 33,
            "TEXCOORD_0": 34
          },
          "indices": 35,
          "material": 0,
          "mode": 4
        }
      ]
    },
    {
      "name": "Side_walls_Cube.005-Mesh",
      "primitives": [
        {
          "attributes": {
            "POSITION": 36,
            "NORMAL": 37,
            "TEXCOORD_0": 38
          },
          "indices": 39,
          "material": 0,
          "mode": 4
        }
      ]
    },
    {
      "name": "Drawer_top_Cube.004-Mesh",
      "primitives": [
        {
          "attributes": {
            "POSITION": 40,
            "NORMAL": 41,
            "TEXCOORD_0": 42
          },
          "indices": 43,
          "material": 0,
          "mode": 4
        }
      ]
    },
    {
      "name": "Leg_Cube.002-Mesh",
      "primitives": [
        {
          "attributes": {
            "POSITION": 44,
            "NORMAL": 45,
            "TEXCOORD_0": 46
          },
          "indices": 47,
          "material": 0,
          "mode": 4
        }
      ]
    }
  ],
  "nodes": [
    {
      "name": "Knob_Cylinder",
      "mesh": 0
    },
    {
      "name": "Door_Cube.013",
      "mesh": 1
    },
    {
      "name": "Drawer_parts_Cube.014",
      "mesh": 2
    },
    {
      "name": "Nut_Sphere",
      "mesh": 3
    },
    {
      "name": "Truss__Cube.017",
      "mesh": 4
    },
    {
      "name": "Base_2_Cube.016",
      "mesh": 5
    },
    {
      "name": "Base_Cube.015",
      "mesh": 6
    },
    {
      "name": "truss_2_Cube.010",
      "mesh": 7
    },
    {
      "name": "truss_3_Cube.007",
      "mesh": 8
    },
    {
      "name": "Side_walls_Cube.005",
      "mesh": 9
    },
    {
      "name": "Drawer_top_Cube.004",
      "mesh": 10
    },
    {
      "name": "Leg_Cube.002",
      "mesh": 11
    }
  ],
  "scene": 0,
  "scenes": [
    {
      "nodes": [
        0,
        1,
        2,
        3,
        4,
        5,
        6,
        7,
        8,
        9,
        10,
        11
      ]
    }
  ]
}
