{
  "accessors": [
    {
      "name": "Table_Circle.004-Mesh_0_positions",
      "componentType": 5126,
      "count": 8079,
      "min": [
        -1.2929760217666626,
        1.3755619525909424,
        -1.2929760217666626
      ],
      "max": [
        1.2929760217666626,
        1.4327529668807983,
        1.2929760217666626
      ],
      "type": "VEC3",
      "bufferView": 0,
      "byteOffset": 0
    },
    {
      "name": "Table_Circle.004-Mesh_0_normals",
      "componentType": 5126,
      "count": 8079,
      "min": [
        -0.9999915957450867,
        -1,
        -0.9999915957450867
      ],
      "max": [
        0.9999915957450867,
        1,
        0.9999915957450867
      ],
      "type": "VEC3",
      "bufferView": 1,
      "byteOffset": 0
    },
    {
      "name": "Table_Circle.004-Mesh_0_texcoords",
      "componentType": 5126,
      "count": 8079,
      "min": [
        0.019012000411748886,
        0.04422000050544739
      ],
      "max": [
        0.9804970026016235,
        0.9804970026016235
      ],
      "type": "VEC2",
      "bufferView": 2,
      "byteOffset": 0
    },
    {
      "name": "Table_Circle.004-Mesh_0_indices",
      "componentType": 5123,
      "count": 47232,
      "min": [
        0
      ],
      "max": [
        8078
      ],
      "type": "SCALAR",
      "bufferView": 3,
      "byteOffset": 0
    },
    {
      "name": "Leg_Cylinder.001-Mesh_0_positions",
      "componentType": 5126,
      "count": 10952,
      "min": [
        -1.1999479532241821,
        -0.022849999368190765,
        -1.2067350149154663
      ],
      "max": [
        1.213523030281067,
        1.4066940546035767,
        1.2067350149154663
      ],
      "type": "VEC3",
      "bufferView": 0,
      "byteOffset": 96948
    },
    {
      "name": "Leg_Cylinder.001-Mesh_0_normals",
      "componentType": 5126,
      "count": 10952,
      "min": [
        -1,
        -1,
        -1
      ],
      "max": [
        1,
        0.27410948276519775,
        1
      ],
      "type": "VEC3",
      "bufferView": 1,
      "byteOffset": 96948
    },
    {
      "name": "Leg_Cylinder.001-Mesh_0_texcoords",
      "componentType": 5126,
      "count": 10952,
      "min": [
        0.5191479921340942,
        0.05505700036883354
      ],
      "max": [
        0.8187580108642578,
        0.48112499713897705
      ],
      "type": "VEC2",
      "bufferView": 2,
      "byteOffset": 64632
    },
    {
      "name": "Leg_Cylinder.001-Mesh_0_indices",
      "componentType": 5123,
      "count": 62784,
      "min": [
        0
      ],
      "max": [
        10951
      ],
      "type": "SCALAR",
      "bufferView": 3,
      "byteOffset": 94464
    },
    {
      "name": "Support_Cube-Mesh_0_positions",
      "componentType": 5126,
      "count": 40,
      "min": [
        -1.183696985244751,
        1.2046040296554565,
        -1.183696985244751
      ],
      "max": [
        1.183696985244751,
        1.3846039772033691,
        1.183696985244751
      ],
      "type": "VEC3",
      "bufferView": 0,
      "byteOffset": 228372
    },
    {
      "name": "Support_Cube-Mesh_0_normals",
      "componentType": 5126,
      "count": 40,
      "min": [
        -0.7071067690849304,
        -1,
        -0.7071067690849304
      ],
      "max": [
        0.7071067690849304,
        0,
        0.7071067690849304
      ],
      "type": "VEC3",
      "bufferView": 1,
      "byteOffset": 228372
    },
    {
      "name": "Support_Cube-Mesh_0_texcoords",
      "componentType": 5126,
      "count": 40,
      "min": [
        0.019012000411748886,
        0.01946300081908703
      ],
      "max": [
        0.932138979434967,
        0.48112499713897705
      ],
      "type": "VEC2",
      "bufferView": 2,
      "byteOffset": 152248
    },
    {
      "name": "Support_Cube-Mesh_0_indices",
      "componentType": 5123,
      "count": 72,
      "min": [
        0
      ],
      "max": [
        39
      ],
      "type": "SCALAR",
      "bufferView": 3,
      "byteOffset": 220032
    }
  ],
  "asset": {
    "generator": "obj2gltf",
    "version": "2.0"
  },
  "buffers": [
    {
      "name": "round table Ultimate(free Final)",
      "byteLength": 830448,
      "uri": "data:application/octet-stream;base64,"
    }
  ],
  "bufferViews": [
    {
      "name": "bufferView_0",
      "buffer": 0,
      "byteLength": 228852,
      "byteOffset": 0,
      "byteStride": 12,
      "target": 34962
    },
    {
      "name": "bufferView_1",
      "buffer": 0,
      "byteLength": 228852,
      "byteOffset": 228852,
      "byteStride": 12,
      "target": 34962
    },
    {
      "name": "bufferView_2",
      "buffer": 0,
      "byteLength": 152568,
      "byteOffset": 457704,
      "byteStride": 8,
      "target": 34962
    },
    {
      "name": "bufferView_3",
      "buffer": 0,
      "byteLength": 220176,
      "byteOffset": 610272,
      "target": 34963
    }
  ],
  "materials": [
    {
      "name": "Round_table_texture_",
      "pbrMetallicRoughness": {
        "baseColorFactor": [
          0.64,
          0.64,
          0.64,
          1
        ],
        "metallicFactor": 0,
        "roughnessFactor": 0.903921569
      },
      "emissiveFactor": [
        0,
        0,
        0
      ],
      "alphaMode": "OPAQUE",
      "doubleSided": false
    }
  ],
  "meshes": [
    {
      "name": "Table_Circle.004-Mesh",
      "primitives": [
        {
          "attributes": {
            "POSITION": 0,
            "NORMAL": 1,
            "TEXCOORD_0": 2
          },
          "indices": 3,
          "material": 0,
          "mode": 4
        }
      ]
    },
    {
      "name": "Leg_Cylinder.001-Mesh",
      "primitives": [
        {
          "attributes": {
            "POSITION": 4,
            "NORMAL": 5,
            "TEXCOORD_0": 6
          },
          "indices": 7,
          "material": 0,
          "mode": 4
        }
      ]
    },
    {
      "name": "Support_Cube-Mesh",
      "primitives": [
        {
          "attributes": {
            "POSITION": 8,
            "NORMAL": 9,
            "TEXCOORD_0": 10
          },
          "indices": 11,
          "material": 0,
          "mode": 4
        }
      ]
    }
  ],
  "nodes": [
    {
      "name": "Table_Circle.004",
      "mesh": 0
    },
    {
      "name": "Leg_Cylinder.001",
      "mesh": 1
    },
    {
      "name": "Support_Cube",
      "mesh": 2
    }
  ],
  "scene": 0,
  "scenes": [
    {
      "nodes": [
        0,
        1,
        2
      ]
    }
  ]
}
