{
  "accessors": [
    {
      "name": "Tactile_buffet_white_1_0_positions",
      "componentType": 5126,
      "count": 1812,
      "min": [
        -100.56340026855469,
        23.587600708007812,
        -24.825599670410156
      ],
      "max": [
        100.52279663085938,
        71.57990264892578,
        22.751699447631836
      ],
      "type": "VEC3",
      "bufferView": 0,
      "byteOffset": 0
    },
    {
      "name": "Tactile_buffet_white_1_0_indices",
      "componentType": 5123,
      "count": 10788,
      "min": [
        0
      ],
      "max": [
        1811
      ],
      "type": "SCALAR",
      "bufferView": 2,
      "byteOffset": 0
    },
    {
      "name": "Tactile_buffet_wood_1_0_positions",
      "componentType": 5126,
      "count": 534,
      "min": [
        -102.7854995727539,
        0.5,
        -24.826799392700195
      ],
      "max": [
        102.75050354003906,
        73.70050048828125,
        24.92490005493164
      ],
      "type": "VEC3",
      "bufferView": 0,
      "byteOffset": 21744
    },
    {
      "name": "Tactile_buffet_wood_1_0_texcoords",
      "componentType": 5126,
      "count": 534,
      "min": [
        0.007799999788403511,
        0.011300000362098217
      ],
      "max": [
        0.9959999918937683,
        0.7300999760627747
      ],
      "type": "VEC2",
      "bufferView": 1,
      "byteOffset": 0
    },
    {
      "name": "Tactile_buffet_wood_1_0_indices",
      "componentType": 5123,
      "count": 1764,
      "min": [
        0
      ],
      "max": [
        533
      ],
      "type": "SCALAR",
      "bufferView": 2,
      "byteOffset": 21576
    },
    {
      "name": "Tactile_buffet_stoppers_1_0_positions",
      "componentType": 5126,
      "count": 520,
      "min": [
        -102.58979797363281,
        0,
        -24.46339988708496
      ],
      "max": [
        102.5281982421875,
        0.550599992275238,
        24.58449935913086
      ],
      "type": "VEC3",
      "bufferView": 0,
      "byteOffset": 28152
    },
    {
      "name": "Tactile_buffet_stoppers_1_0_texcoords",
      "componentType": 5126,
      "count": 520,
      "min": [
        0.007600000128149986,
        0
      ],
      "max": [
        1.0277999639511108,
        1
      ],
      "type": "VEC2",
      "bufferView": 1,
      "byteOffset": 4272
    },
    {
      "name": "Tactile_buffet_stoppers_1_0_indices",
      "componentType": 5123,
      "count": 2976,
      "min": [
        0
      ],
      "max": [
        519
      ],
      "type": "SCALAR",
      "bufferView": 2,
      "byteOffset": 25104
    },
    {
      "name": "Tactile_buffet_black_1_0_positions",
      "componentType": 5126,
      "count": 4,
      "min": [
        -101.42019653320312,
        24.025100708007812,
        21.381900787353516
      ],
      "max": [
        101.52290344238281,
        72.15509796142578,
        21.381900787353516
      ],
      "type": "VEC3",
      "bufferView": 0,
      "byteOffset": 34392
    },
    {
      "name": "Tactile_buffet_black_1_0_texcoords",
      "componentType": 5126,
      "count": 4,
      "min": [
        0,
        0
      ],
      "max": [
        1,
        1
      ],
      "type": "VEC2",
      "bufferView": 1,
      "byteOffset": 8432
    },
    {
      "name": "Tactile_buffet_black_1_0_indices",
      "componentType": 5123,
      "count": 6,
      "min": [
        0
      ],
      "max": [
        3
      ],
      "type": "SCALAR",
      "bufferView": 2,
      "byteOffset": 31056
    }
  ],
  "asset": {
    "generator": "obj2gltf",
    "version": "2.0"
  },
  "buffers": [
    {
      "name": "Tactile buffet_obj",
      "byteLength": 73972,
      "uri": "data:application/octet-stream;base64,"
    }
  ],
  "bufferViews": [
    {
      "name": "bufferView_0",
      "buffer": 0,
      "byteLength": 34440,
      "byteOffset": 0,
      "byteStride": 12,
      "target": 34962
    },
    {
      "name": "bufferView_1",
      "buffer": 0,
      "byteLength": 8464,
      "byteOffset": 34440,
      "byteStride": 8,
      "target": 34962
    },
    {
      "name": "bufferView_2",
      "buffer": 0,
      "byteLength": 31068,
      "byteOffset": 42904,
      "target": 34963
    }
  ],
  "materials": [
    {
      "name": "01___Default",
      "pbrMetallicRoughness": {
        "baseColorFactor": [
          0.5,
          0.5,
          0.5,
          1
        ],
        "metallicFactor": 0,
        "roughnessFactor": 1
      },
      "emissiveFactor": [
        0,
        0,
        0
      ],
      "alphaMode": "OPAQUE",
      "doubleSided": false
    },
    {
      "name": "01___Default-2",
      "pbrMetallicRoughness": {
        "baseColorFactor": [
          0.5,
          0.5,
          0.5,
          1
        ],
        "metallicFactor": 0,
        "roughnessFactor": 1
      },
      "emissiveFactor": [
        0,
        0,
        0
      ],
      "alphaMode": "OPAQUE",
      "doubleSided": false
    }
  ],
  "meshes": [
    {
      "name": "Tactile_buffet_white_1",
      "primitives": [
        {
          "attributes": {
            "POSITION": 0
          },
          "indices": 1,
          "material": 0,
          "mode": 4
        }
      ]
    },
    {
      "name": "Tactile_buffet_wood_1",
      "primitives": [
        {
          "attributes": {
            "POSITION": 2,
            "TEXCOORD_0": 3
          },
          "indices": 4,
          "material": 1,
          "mode": 4
        }
      ]
    },
    {
      "name": "Tactile_buffet_stoppers_1",
      "primitives": [
        {
          "attributes": {
            "POSITION": 5,
            "TEXCOORD_0": 6
          },
          "indices": 7,
          "material": 1,
          "mode": 4
        }
      ]
    },
    {
      "name": "Tactile_buffet_black_1",
      "primitives": [
        {
          "attributes": {
            "POSITION": 8,
            "TEXCOORD_0": 9
          },
          "indices": 10,
          "material": 1,
          "mode": 4
        }
      ]
    }
  ],
  "nodes": [
    {
      "name": "Tactile_buffet_white",
      "mesh": 0
    },
    {
      "name": "Tactile_buffet_wood",
      "mesh": 1
    },
    {
      "name": "Tactile_buffet_stoppers",
      "mesh": 2
    },
    {
      "name": "Tactile_buffet_black",
      "mesh": 3
    }
  ],
  "scene": 0,
  "scenes": [
    {
      "nodes": [
        0,
        1,
        2,
        3
      ]
    }
  ]
}
